<?xml version="1.0" encoding="UTF-8"?>
<svg xmlns="http://www.w3.org/2000/svg" xmlns:xlink="http://www.w3.org/1999/xlink" width="30px" height="30px" viewBox="0 0 30 30" version="1.1">
<g id="surface1">
<path style=" stroke:none;fill-rule:nonzero;fill:rgb(92.941177%,66.666669%,25.490198%);fill-opacity:1;" d="M 7.527344 1.632812 C 7.625 1.632812 7.722656 1.632812 7.816406 1.632812 C 8.082031 1.632812 8.34375 1.632812 8.605469 1.632812 C 8.890625 1.632812 9.175781 1.632812 9.460938 1.632812 C 9.953125 1.632812 10.445312 1.632812 10.9375 1.636719 C 11.648438 1.636719 12.359375 1.636719 13.074219 1.636719 C 14.226562 1.636719 15.382812 1.636719 16.539062 1.636719 C 17.660156 1.640625 18.78125 1.640625 19.902344 1.640625 C 20.007812 1.640625 20.007812 1.640625 20.113281 1.640625 C 20.460938 1.640625 20.808594 1.640625 21.152344 1.640625 C 24.03125 1.640625 26.910156 1.644531 29.789062 1.644531 C 29.769531 1.765625 29.753906 1.882812 29.738281 2.003906 C 29.726562 2.070312 29.71875 2.136719 29.710938 2.203125 C 29.675781 2.414062 29.636719 2.621094 29.589844 2.828125 C 29.582031 2.867188 29.574219 2.902344 29.566406 2.941406 C 29.539062 3.0625 29.511719 3.183594 29.484375 3.304688 C 29.445312 3.480469 29.410156 3.652344 29.371094 3.824219 C 29.355469 3.890625 29.355469 3.890625 29.339844 3.957031 C 29.277344 4.257812 29.214844 4.558594 29.15625 4.859375 C 29.140625 4.941406 29.125 5.019531 29.109375 5.101562 C 29.085938 5.21875 29.066406 5.332031 29.042969 5.449219 C 28.84375 6.539062 28.308594 7.550781 27.386719 8.195312 C 26.578125 8.710938 25.816406 8.878906 24.867188 8.890625 C 24.808594 8.890625 24.746094 8.890625 24.6875 8.890625 C 24.496094 8.894531 24.304688 8.898438 24.117188 8.902344 C 23.984375 8.902344 23.855469 8.90625 23.726562 8.90625 C 23.410156 8.910156 23.09375 8.917969 22.777344 8.921875 C 22.667969 9.46875 22.558594 10.015625 22.460938 10.570312 C 22.453125 10.617188 22.445312 10.667969 22.4375 10.71875 C 22.402344 10.917969 22.367188 11.117188 22.332031 11.320312 C 22.140625 12.441406 21.851562 13.425781 21.132812 14.335938 C 21.101562 14.378906 21.070312 14.417969 21.035156 14.460938 C 20.308594 15.332031 19.171875 15.921875 18.054688 16.089844 C 17.832031 16.101562 17.613281 16.101562 17.394531 16.101562 C 17.328125 16.101562 17.265625 16.101562 17.199219 16.101562 C 17.027344 16.101562 16.855469 16.101562 16.679688 16.097656 C 16.5 16.097656 16.316406 16.097656 16.136719 16.097656 C 15.792969 16.097656 15.449219 16.097656 15.105469 16.097656 C 14.714844 16.09375 14.324219 16.09375 13.933594 16.09375 C 13.128906 16.09375 12.324219 16.089844 11.523438 16.089844 C 11.519531 16.125 11.515625 16.160156 11.511719 16.199219 C 11.503906 16.269531 11.503906 16.269531 11.496094 16.34375 C 11.492188 16.390625 11.488281 16.4375 11.484375 16.488281 C 11.464844 16.640625 11.4375 16.792969 11.40625 16.945312 C 11.394531 17.003906 11.378906 17.0625 11.367188 17.121094 C 11.355469 17.183594 11.339844 17.246094 11.328125 17.308594 C 11.207031 17.878906 11.097656 18.445312 10.996094 19.019531 C 10.878906 19.703125 10.753906 20.386719 10.621094 21.066406 C 10.488281 21.757812 10.359375 22.453125 10.230469 23.148438 C 10.1875 23.394531 10.140625 23.644531 10.09375 23.890625 C 10.0625 24.058594 10.035156 24.222656 10.003906 24.390625 C 9.902344 24.941406 9.792969 25.453125 9.558594 25.964844 C 9.535156 26.011719 9.511719 26.0625 9.492188 26.113281 C 8.96875 27.15625 8.027344 27.855469 6.945312 28.246094 C 6.464844 28.375 5.992188 28.421875 5.496094 28.417969 C 5.414062 28.417969 5.414062 28.417969 5.324219 28.417969 C 5.136719 28.417969 4.953125 28.417969 4.765625 28.417969 C 4.636719 28.417969 4.507812 28.417969 4.375 28.417969 C 4.035156 28.417969 3.695312 28.414062 3.355469 28.414062 C 3.007812 28.414062 2.660156 28.414062 2.3125 28.414062 C 1.628906 28.410156 0.945312 28.410156 0.265625 28.40625 C 0.316406 27.851562 0.316406 27.851562 0.367188 27.585938 C 0.375 27.535156 0.382812 27.488281 0.394531 27.433594 C 0.402344 27.382812 0.414062 27.328125 0.421875 27.273438 C 0.433594 27.214844 0.445312 27.160156 0.453125 27.101562 C 0.488281 26.914062 0.523438 26.726562 0.558594 26.539062 C 0.582031 26.40625 0.605469 26.277344 0.628906 26.144531 C 0.789062 25.277344 0.953125 24.40625 1.121094 23.539062 C 1.335938 22.433594 1.535156 21.324219 1.734375 20.210938 C 1.75 20.121094 1.765625 20.03125 1.78125 19.941406 C 1.796875 19.84375 1.816406 19.742188 1.832031 19.644531 C 1.84375 19.589844 1.851562 19.535156 1.859375 19.480469 C 1.871094 19.433594 1.878906 19.386719 1.886719 19.335938 C 1.910156 19.222656 1.910156 19.222656 1.964844 19.167969 C 1.980469 19.089844 1.992188 19.007812 2.003906 18.929688 C 2.011719 18.875 2.019531 18.824219 2.027344 18.769531 C 2.035156 18.710938 2.042969 18.652344 2.050781 18.59375 C 2.132812 18.03125 2.234375 17.472656 2.347656 16.910156 C 2.527344 16 2.695312 15.082031 2.855469 14.167969 C 3.019531 13.257812 3.191406 12.351562 3.367188 11.445312 C 3.65625 9.980469 3.925781 8.515625 4.191406 7.046875 C 4.28125 6.554688 4.371094 6.066406 4.460938 5.574219 C 4.476562 5.492188 4.476562 5.492188 4.492188 5.410156 C 4.554688 5.066406 4.617188 4.722656 4.679688 4.378906 C 4.703125 4.269531 4.722656 4.160156 4.742188 4.050781 C 4.769531 3.898438 4.800781 3.746094 4.828125 3.59375 C 4.835938 3.550781 4.84375 3.507812 4.851562 3.460938 C 4.980469 2.785156 5.261719 2.257812 5.835938 1.859375 C 6.355469 1.582031 6.957031 1.632812 7.527344 1.632812 Z M 7.527344 1.632812 "/>
<path style=" stroke:none;fill-rule:nonzero;fill:rgb(12.156863%,30.19608%,56.862748%);fill-opacity:1;" d="M 7.527344 1.632812 C 7.625 1.632812 7.722656 1.632812 7.816406 1.632812 C 8.082031 1.632812 8.34375 1.632812 8.605469 1.632812 C 8.890625 1.632812 9.175781 1.632812 9.460938 1.632812 C 9.953125 1.632812 10.445312 1.632812 10.9375 1.636719 C 11.648438 1.636719 12.359375 1.636719 13.074219 1.636719 C 14.226562 1.636719 15.382812 1.636719 16.539062 1.636719 C 17.660156 1.640625 18.78125 1.640625 19.902344 1.640625 C 20.007812 1.640625 20.007812 1.640625 20.113281 1.640625 C 20.460938 1.640625 20.808594 1.640625 21.152344 1.640625 C 24.03125 1.640625 26.910156 1.644531 29.789062 1.644531 C 29.769531 1.765625 29.753906 1.882812 29.738281 2.003906 C 29.726562 2.070312 29.71875 2.136719 29.710938 2.203125 C 29.675781 2.414062 29.636719 2.621094 29.589844 2.828125 C 29.582031 2.867188 29.574219 2.902344 29.566406 2.941406 C 29.539062 3.0625 29.511719 3.183594 29.484375 3.304688 C 29.445312 3.480469 29.410156 3.652344 29.371094 3.824219 C 29.355469 3.890625 29.355469 3.890625 29.339844 3.957031 C 29.277344 4.257812 29.214844 4.558594 29.15625 4.859375 C 29.140625 4.941406 29.125 5.019531 29.109375 5.101562 C 29.085938 5.21875 29.066406 5.332031 29.042969 5.449219 C 28.84375 6.539062 28.308594 7.550781 27.386719 8.195312 C 26.578125 8.710938 25.816406 8.878906 24.867188 8.890625 C 24.808594 8.890625 24.746094 8.890625 24.6875 8.890625 C 24.496094 8.894531 24.304688 8.898438 24.117188 8.902344 C 23.984375 8.902344 23.855469 8.90625 23.726562 8.90625 C 23.410156 8.910156 23.09375 8.917969 22.777344 8.921875 C 22.707031 9.21875 22.636719 9.515625 22.566406 9.824219 C 22.492188 9.824219 22.417969 9.824219 22.339844 9.824219 C 20.554688 9.820312 18.769531 9.816406 16.980469 9.816406 C 16.761719 9.816406 16.542969 9.816406 16.320312 9.8125 C 16.277344 9.8125 16.234375 9.8125 16.1875 9.8125 C 15.480469 9.8125 14.773438 9.8125 14.0625 9.8125 C 13.335938 9.808594 12.609375 9.808594 11.882812 9.808594 C 11.433594 9.808594 10.984375 9.808594 10.535156 9.804688 C 10.230469 9.804688 9.921875 9.804688 9.613281 9.804688 C 9.433594 9.804688 9.257812 9.804688 9.082031 9.804688 C 8.050781 9.800781 7.054688 9.859375 6.054688 10.132812 C 6.003906 10.144531 5.953125 10.160156 5.902344 10.171875 C 4.894531 10.453125 3.949219 10.917969 3.398438 11.839844 C 3.324219 11.632812 3.363281 11.464844 3.402344 11.25 C 3.410156 11.214844 3.417969 11.175781 3.421875 11.136719 C 3.445312 11.007812 3.46875 10.878906 3.496094 10.753906 C 3.511719 10.660156 3.527344 10.570312 3.542969 10.476562 C 3.707031 9.589844 3.878906 8.703125 4.050781 7.816406 C 4.1875 7.121094 4.320312 6.421875 4.445312 5.722656 C 4.460938 5.640625 4.476562 5.558594 4.492188 5.476562 C 4.554688 5.125 4.621094 4.769531 4.683594 4.417969 C 4.710938 4.257812 4.742188 4.101562 4.769531 3.945312 C 4.789062 3.839844 4.804688 3.734375 4.824219 3.628906 C 4.960938 2.878906 5.191406 2.304688 5.835938 1.859375 C 6.355469 1.582031 6.957031 1.632812 7.527344 1.632812 Z M 7.527344 1.632812 "/>
<path style=" stroke:none;fill-rule:nonzero;fill:rgb(12.156863%,30.19608%,56.862748%);fill-opacity:1;" d="M 8.160156 16.078125 C 8.257812 16.078125 8.355469 16.078125 8.453125 16.078125 C 8.707031 16.078125 8.960938 16.078125 9.214844 16.082031 C 9.476562 16.082031 9.738281 16.082031 9.996094 16.082031 C 10.503906 16.085938 11.015625 16.085938 11.523438 16.089844 C 11.496094 16.378906 11.46875 16.660156 11.40625 16.945312 C 11.394531 17.003906 11.378906 17.0625 11.367188 17.121094 C 11.355469 17.183594 11.339844 17.246094 11.328125 17.308594 C 11.207031 17.878906 11.097656 18.445312 10.996094 19.019531 C 10.878906 19.703125 10.753906 20.386719 10.621094 21.066406 C 10.488281 21.757812 10.359375 22.453125 10.230469 23.148438 C 10.1875 23.394531 10.140625 23.644531 10.09375 23.890625 C 10.0625 24.058594 10.035156 24.222656 10.003906 24.390625 C 9.902344 24.941406 9.792969 25.453125 9.558594 25.964844 C 9.523438 26.039062 9.523438 26.039062 9.492188 26.113281 C 8.96875 27.15625 8.027344 27.855469 6.945312 28.246094 C 6.464844 28.375 5.992188 28.421875 5.496094 28.417969 C 5.414062 28.417969 5.414062 28.417969 5.324219 28.417969 C 5.136719 28.417969 4.953125 28.417969 4.765625 28.417969 C 4.636719 28.417969 4.507812 28.417969 4.375 28.417969 C 4.035156 28.417969 3.695312 28.414062 3.355469 28.414062 C 3.007812 28.414062 2.660156 28.414062 2.3125 28.414062 C 1.628906 28.410156 0.945312 28.410156 0.265625 28.40625 C 0.316406 27.851562 0.316406 27.851562 0.367188 27.585938 C 0.375 27.535156 0.382812 27.488281 0.394531 27.433594 C 0.402344 27.382812 0.414062 27.328125 0.421875 27.273438 C 0.433594 27.214844 0.445312 27.160156 0.453125 27.101562 C 0.488281 26.914062 0.523438 26.726562 0.558594 26.539062 C 0.582031 26.40625 0.605469 26.277344 0.628906 26.144531 C 0.789062 25.277344 0.953125 24.40625 1.121094 23.539062 C 1.335938 22.433594 1.535156 21.324219 1.734375 20.210938 C 1.75 20.121094 1.765625 20.03125 1.78125 19.941406 C 1.796875 19.84375 1.816406 19.746094 1.832031 19.648438 C 1.839844 19.597656 1.851562 19.546875 1.859375 19.492188 C 1.867188 19.445312 1.875 19.398438 1.882812 19.351562 C 1.925781 19.152344 2.003906 18.976562 2.101562 18.796875 C 2.121094 18.761719 2.136719 18.722656 2.15625 18.6875 C 2.816406 17.460938 3.972656 16.828125 5.257812 16.429688 C 6.21875 16.148438 7.167969 16.070312 8.160156 16.078125 Z M 8.160156 16.078125 "/>
<path style=" stroke:none;fill-rule:nonzero;fill:rgb(40.784314%,40.000001%,40.000001%);fill-opacity:1;" d="M 8.394531 8.859375 C 8.453125 8.859375 8.515625 8.859375 8.582031 8.859375 C 8.75 8.859375 8.921875 8.859375 9.089844 8.859375 C 9.273438 8.859375 9.457031 8.859375 9.640625 8.859375 C 9.960938 8.859375 10.277344 8.863281 10.597656 8.863281 C 11.058594 8.863281 11.515625 8.863281 11.976562 8.863281 C 12.722656 8.863281 13.46875 8.863281 14.214844 8.863281 C 14.941406 8.863281 15.664062 8.863281 16.390625 8.863281 C 16.457031 8.863281 16.457031 8.863281 16.527344 8.863281 C 16.75 8.863281 16.976562 8.863281 17.199219 8.863281 C 19.058594 8.863281 20.917969 8.867188 22.777344 8.867188 C 22.707031 9.183594 22.636719 9.5 22.566406 9.824219 C 22.492188 9.824219 22.417969 9.824219 22.339844 9.824219 C 20.554688 9.820312 18.769531 9.816406 16.980469 9.816406 C 16.761719 9.816406 16.542969 9.816406 16.320312 9.8125 C 16.277344 9.8125 16.234375 9.8125 16.1875 9.8125 C 15.480469 9.8125 14.773438 9.8125 14.0625 9.8125 C 13.335938 9.808594 12.609375 9.808594 11.882812 9.808594 C 11.433594 9.808594 10.984375 9.808594 10.535156 9.804688 C 10.230469 9.804688 9.921875 9.804688 9.613281 9.804688 C 9.433594 9.804688 9.257812 9.804688 9.082031 9.804688 C 8.050781 9.800781 7.054688 9.859375 6.054688 10.132812 C 6.003906 10.144531 5.953125 10.160156 5.902344 10.171875 C 4.894531 10.453125 3.949219 10.917969 3.398438 11.839844 C 3.335938 11.632812 3.359375 11.46875 3.398438 11.257812 C 3.433594 11.273438 3.46875 11.292969 3.503906 11.308594 C 3.519531 11.273438 3.539062 11.238281 3.554688 11.199219 C 3.730469 10.847656 3.921875 10.613281 4.222656 10.363281 C 4.382812 10.222656 4.515625 10.066406 4.648438 9.898438 C 4.726562 9.824219 4.726562 9.824219 4.886719 9.824219 C 4.886719 9.789062 4.886719 9.753906 4.886719 9.71875 C 5.492188 9.402344 6.027344 9.152344 6.707031 9.050781 C 6.855469 9.03125 6.855469 9.03125 7.011719 8.96875 C 7.449219 8.832031 7.9375 8.859375 8.394531 8.859375 Z M 8.394531 8.859375 "/>
<path style=" stroke:none;fill-rule:nonzero;fill:rgb(54.11765%,53.725493%,53.725493%);fill-opacity:1;" d="M 8.160156 16.078125 C 8.257812 16.078125 8.355469 16.078125 8.453125 16.078125 C 8.707031 16.078125 8.960938 16.078125 9.214844 16.082031 C 9.476562 16.082031 9.738281 16.082031 9.996094 16.082031 C 10.503906 16.085938 11.015625 16.085938 11.523438 16.089844 C 11.515625 16.171875 11.503906 16.257812 11.496094 16.34375 C 11.492188 16.390625 11.488281 16.4375 11.484375 16.488281 C 11.460938 16.710938 11.410156 16.929688 11.363281 17.152344 C 11.3125 17.148438 11.257812 17.144531 11.207031 17.140625 C 10.703125 17.105469 10.203125 17.085938 9.699219 17.085938 C 9.664062 17.085938 9.625 17.085938 9.585938 17.085938 C 6.9375 17.070312 6.9375 17.070312 4.355469 17.574219 C 4.296875 17.59375 4.234375 17.613281 4.175781 17.628906 C 3.902344 17.71875 3.652344 17.8125 3.398438 17.945312 C 3.363281 17.945312 3.328125 17.945312 3.292969 17.945312 C 3.292969 17.980469 3.292969 18.015625 3.292969 18.054688 C 3.238281 18.054688 3.1875 18.054688 3.132812 18.054688 C 3.132812 18.089844 3.132812 18.125 3.132812 18.160156 C 3.058594 18.195312 3.058594 18.195312 2.980469 18.230469 C 2.726562 18.375 2.542969 18.585938 2.34375 18.792969 C 2.230469 18.902344 2.230469 18.902344 2.125 18.902344 C 2.207031 18.300781 2.8125 17.742188 3.269531 17.386719 C 4.703125 16.355469 6.429688 16.066406 8.160156 16.078125 Z M 8.160156 16.078125 "/>
</g>
</svg>
