<?xml version="1.0" encoding="UTF-8"?>
<svg version="1.1" xmlns="http://www.w3.org/2000/svg"  width="24" height="24" viewBox="0 0 2150 2150">
<path d="M0,0 L15,0 L46,2 L73,6 L100,12 L123,19 L151,30 L179,44 L199,56 L216,68 L229,78 L243,90 L256,102 L267,113 L274,121 L285,134 L298,152 L308,167 L321,190 L333,215 L343,242 L351,270 L357,301 L360,330 L360,377 L357,405 L353,428 L346,455 L338,479 L328,502 L320,518 L312,533 L300,552 L286,571 L274,585 L265,595 L257,604 L249,611 L242,618 L231,627 L216,639 L198,651 L178,663 L163,671 L138,682 L102,694 L76,700 L52,704 L30,706 L-15,706 L-44,703 L-71,698 L-94,692 L-118,684 L-144,673 L-169,660 L-188,648 L-205,636 L-221,623 L-233,612 L-241,605 L-250,596 L-257,588 L-269,574 L-281,558 L-291,543 L-305,519 L-318,492 L-327,468 L-335,442 L-341,413 L-344,392 L-345,381 L-346,352 L-345,326 L-341,293 L-335,265 L-326,235 L-315,208 L-307,192 L-297,173 L-279,146 L-269,133 L-258,120 L-247,108 L-230,91 L-219,82 L-207,72 L-190,60 L-171,48 L-147,35 L-124,25 L-99,16 L-73,9 L-47,4 L-21,1 Z M-20,143 L-26,146 L-30,151 L-34,164 L-40,173 L-47,180 L-61,189 L-89,201 L-106,205 L-118,207 L-123,212 L-125,216 L-125,311 L-121,317 L-117,320 L-102,320 L-81,317 L-54,311 L-34,303 L-30,301 L-30,562 L-27,567 L-23,570 L-20,571 L78,571 L84,568 L88,560 L87,151 L84,146 L78,143 Z " fill="#000202" transform="translate(372,480)"/>
<path d="M0,0 L23,0 L52,2 L78,6 L103,12 L126,19 L148,28 L173,40 L193,52 L213,66 L226,77 L234,84 L247,96 L256,106 L267,119 L281,138 L293,158 L305,181 L316,207 L325,235 L331,260 L336,292 L337,303 L337,361 L335,381 L334,384 L-145,384 L-139,411 L-131,432 L-123,447 L-112,463 L-101,475 L-92,484 L-79,493 L-63,502 L-42,510 L-21,515 L-13,516 L27,516 L46,513 L66,507 L82,500 L97,492 L109,483 L119,474 L128,465 L139,450 L143,444 L325,444 L322,455 L311,482 L300,504 L289,522 L278,538 L267,552 L255,566 L232,589 L221,598 L203,612 L186,623 L165,635 L144,645 L120,654 L101,660 L75,666 L47,670 L34,671 L-19,671 L-47,668 L-76,662 L-97,656 L-119,648 L-143,637 L-166,624 L-178,616 L-197,602 L-207,593 L-215,586 L-237,564 L-246,553 L-258,538 L-268,523 L-277,508 L-289,485 L-297,467 L-306,442 L-313,415 L-317,393 L-320,365 L-320,314 L-317,283 L-312,255 L-305,228 L-296,202 L-288,184 L-280,168 L-271,152 L-258,133 L-247,119 L-235,105 L-210,80 L-199,71 L-181,57 L-162,45 L-138,32 L-112,21 L-87,13 L-62,7 L-39,3 L-20,1 Z M-8,147 L-27,150 L-45,155 L-63,163 L-77,171 L-89,180 L-102,192 L-111,203 L-121,217 L-131,236 L-138,255 L-140,266 L165,266 L162,255 L152,232 L141,214 L131,201 L120,189 L106,177 L90,167 L74,159 L53,152 L33,148 L24,147 Z " fill="#000202" transform="translate(1790,512)"/>
<path d="M0,0 L52,0 L73,3 L97,9 L116,16 L137,26 L156,38 L170,49 L182,60 L195,73 L208,90 L219,107 L230,128 L239,151 L245,170 L251,197 L255,227 L256,241 L256,650 L84,650 L83,282 L81,256 L77,234 L72,217 L64,199 L55,186 L45,175 L31,165 L15,158 L0,154 L-16,152 L-40,152 L-60,155 L-80,161 L-99,170 L-112,179 L-122,188 L-132,198 L-141,211 L-147,221 L-157,246 L-163,269 L-166,287 L-167,298 L-168,650 L-340,650 L-340,15 L-222,15 L-217,25 L-198,69 L-189,90 L-189,92 L-184,87 L-168,70 L-160,63 L-143,50 L-126,39 L-104,27 L-80,17 L-59,10 L-38,5 L-12,1 Z " fill="#000202" transform="translate(1142,515)"/>
<path d="M0,0 L48,0 L48,407 L11,407 L5,371 L4,366 L-6,376 L-22,388 L-40,398 L-57,405 L-74,410 L-92,413 L-115,414 L-136,412 L-154,408 L-172,402 L-188,394 L-203,385 L-214,376 L-224,367 L-237,350 L-246,335 L-253,320 L-260,299 L-264,278 L-265,268 L-265,245 L-262,223 L-257,204 L-249,184 L-240,168 L-230,154 L-222,144 L-214,137 L-199,126 L-182,116 L-162,108 L-144,103 L-123,100 L-97,100 L-76,103 L-55,109 L-37,117 L-21,126 L-8,136 L-1,142 Z M-112,146 L-133,149 L-151,155 L-168,164 L-181,174 L-191,184 L-198,194 L-205,206 L-211,222 L-215,240 L-216,250 L-216,267 L-213,286 L-208,301 L-200,317 L-191,329 L-181,340 L-168,350 L-154,358 L-137,364 L-122,367 L-92,367 L-76,364 L-60,358 L-45,350 L-34,341 L-27,335 L-16,321 L-7,305 L0,286 L3,270 L3,243 L0,227 L-7,208 L-16,192 L-25,181 L-30,176 L-37,169 L-51,160 L-65,153 L-82,148 L-98,146 Z " fill="#000202" transform="translate(1626,1264)"/>
<path d="M0,0 L35,0 L59,4 L83,12 L104,23 L116,32 L126,41 L135,50 L137,40 L141,10 L142,7 L181,7 L181,307 L140,307 L135,264 L123,276 L109,287 L94,296 L79,303 L60,309 L46,312 L23,314 L10,314 L-11,312 L-28,308 L-47,301 L-66,291 L-80,281 L-93,269 L-102,259 L-113,243 L-121,229 L-129,209 L-134,190 L-137,169 L-137,145 L-134,123 L-129,104 L-121,85 L-113,70 L-103,56 L-94,46 L-90,41 L-79,32 L-67,23 L-51,14 L-30,6 L-14,2 Z M18,46 L1,48 L-14,52 L-26,57 L-39,64 L-51,73 L-57,78 L-68,92 L-76,106 L-82,120 L-87,141 L-88,152 L-88,162 L-85,183 L-78,204 L-69,220 L-59,233 L-52,240 L-37,251 L-16,261 L-2,265 L11,267 L33,267 L50,264 L68,258 L83,250 L96,240 L106,230 L116,215 L124,199 L129,182 L131,171 L131,143 L128,127 L121,108 L114,95 L106,84 L97,74 L82,63 L66,55 L48,49 L37,47 Z " fill="#000202" transform="translate(906,1364)"/>
<path d="M0,0 L34,0 L53,3 L70,8 L85,14 L103,24 L116,34 L129,46 L139,58 L149,73 L158,92 L162,104 L162,108 L114,108 L108,96 L99,84 L93,77 L82,68 L71,61 L59,55 L44,50 L23,47 L9,47 L-6,49 L-23,54 L-39,62 L-50,70 L-61,80 L-71,93 L-79,107 L-85,122 L-89,141 L-89,171 L-86,187 L-80,204 L-71,221 L-62,232 L-51,243 L-36,253 L-21,260 L-2,265 L5,266 L29,266 L45,263 L62,257 L76,249 L86,241 L93,235 L104,221 L112,207 L114,203 L163,203 L161,213 L155,228 L145,247 L135,260 L126,270 L118,278 L102,290 L86,299 L66,307 L45,312 L25,314 L9,314 L-11,312 L-33,307 L-53,299 L-70,290 L-86,278 L-98,267 L-109,254 L-118,240 L-126,225 L-133,206 L-137,190 L-139,177 L-140,151 L-138,128 L-133,107 L-126,88 L-116,70 L-104,54 L-92,41 L-79,30 L-64,20 L-43,10 L-28,5 L-9,1 Z " fill="#000101" transform="translate(565,1364)"/>
<path d="M0,0 L45,0 L45,46 L-1,47 L-17,51 L-33,59 L-44,67 L-52,76 L-60,90 L-66,105 L-69,118 L-70,128 L-70,302 L-119,302 L-119,2 L-84,2 L-77,42 L-76,44 L-64,30 L-53,21 L-39,12 L-25,6 L-12,2 Z " fill="#000202" transform="translate(1299,1369)"/>
</svg>
